<svg width="385" height="102" viewBox="0 0 385 102" fill="none" xmlns="http://www.w3.org/2000/svg">
<path d="M382.222 80.5076L382.7 82.9614L382.7 82.9614L382.222 80.5076ZM384.334 81.8965C385.105 80.7512 384.802 79.1976 383.657 78.4264L364.995 65.8582C363.849 65.087 362.296 65.3902 361.524 66.5354C360.753 67.6806 361.056 69.2342 362.202 70.0055L378.791 81.1772L367.619 97.7661C366.848 98.9113 367.151 100.465 368.296 101.236C369.441 102.007 370.995 101.704 371.766 100.559L384.334 81.8965ZM0.313935 5.31383C251.995 108.287 361.568 87.0848 382.7 82.9614L381.743 78.0539C361.677 81.9693 253.094 103.335 2.20731 0.686175L0.313935 5.31383ZM382.7 82.9614L382.739 82.9537L381.782 78.0463L381.743 78.0539L382.7 82.9614Z" fill="#489750"/>
</svg>
